<svg xmlns="http://www.w3.org/2000/svg" viewBox="0 0 32 32" fill="none">
  <rect width="32" height="32" rx="6" fill="#0D0D0B"/>
  <!-- Left C shape -->
  <path d="M4 10.5 C4 7.5 6.5 5 9.5 5 L14 5 L14 8 L9.5 8 C8.1 8 7 9.1 7 10.5 L7 21.5 C7 22.9 8.1 24 9.5 24 L14 24 L14 27 L9.5 27 C6.5 27 4 24.5 4 21.5 Z" fill="#F0EDE5"/>
  <!-- Left C inner notch top -->
  <rect x="10" y="5" width="4" height="3.5" fill="#0D0D0B"/>
  <!-- Left C inner notch bottom -->
  <rect x="10" y="23.5" width="4" height="3.5" fill="#0D0D0B"/>
  <!-- Right D shape -->
  <path d="M18 5 L22.5 5 C25.5 5 28 7.5 28 10.5 L28 21.5 C28 24.5 25.5 27 22.5 27 L18 27 L18 24 L22.5 24 C23.9 24 25 22.9 25 21.5 L25 10.5 C25 9.1 23.9 8 22.5 8 L18 8 Z" fill="#F0EDE5"/>
  <!-- Right D inner notch top -->
  <rect x="18" y="5" width="4" height="3.5" fill="#0D0D0B"/>
  <!-- Right D inner notch bottom -->
  <rect x="18" y="23.5" width="4" height="3.5" fill="#0D0D0B"/>
</svg>
